# xmcd
#
# Track frame offsets:
#	150
#	23756
#	52815
#	73062
#	95738
#	119696
#	143893
#	168291
#	190639
#	214108
#	239755
#	259940
#	284720
#	305253
#
# Disc length: 4287 seconds
#
# Revision: 1
# Processed by: cddbd v1.5.2PL0 Copyright (c) Steve Scherf et al.
# Submitted via: dBpowerAMP V4.0
#
DISCID=d510bd0e
DTITLE=Guaco - Super Guaco Serie 32
DYEAR=2000
DGENRE=Salsa
TTITLE0=Sentimiento Nacional
TTITLE1=Para Ella
TTITLE2=El Billetero
TTITLE3=Amor Amor
TTITLE4=Un Cigarrito y un Café
TTITLE5=Guaco Pa' Tí
TTITLE6=Pastelero
TTITLE7=Maracucha
TTITLE8=Me Gustan Las Caraqueñas
TTITLE9=Cepillao
TTITLE10=Homenaje a Jesús Lozano
TTITLE11=A Comer
TTITLE12=Guaco y Tambora
TTITLE13=Mi Tamborera
EXTD=
EXTT0=
EXTT1=
EXTT2=
EXTT3=
EXTT4=
EXTT5=
EXTT6=
EXTT7=
EXTT8=
EXTT9=
EXTT10=
EXTT11=
EXTT12=
EXTT13=
PLAYORDER=
